<?xml version="1.0" encoding="iso-8859-1"?>
<!-- Uploaded to: SVG Repo, www.svgrepo.com, Generator: SVG Repo Mixer Tools -->
<svg fill="#000000" version="1.1" id="Capa_1" xmlns="http://www.w3.org/2000/svg" xmlns:xlink="http://www.w3.org/1999/xlink" 
	 viewBox="0 0 490 490" xml:space="preserve">
<g>
	<rect x="166.224" y="222.069" width="30.625" height="72.263"/>
	<rect x="208.214" y="185.38" width="30.625" height="108.952"/>
	<rect x="250.204" y="148.684" width="30.625" height="145.648"/>
	<rect x="292.194" y="111.988" width="30.625" height="182.344"/>
	<path d="M467.031,43.707H22.969C10.336,43.707,0,54.043,0,66.676v273.073c0,12.633,10.336,22.969,22.969,22.969h183.75v52.951
		h-69.863v30.625h216.289v-30.625h-69.863v-52.951h183.75c12.633,0,22.969-10.336,22.969-22.969V66.676
		C490,54.043,479.664,43.707,467.031,43.707z M459.375,332.092H30.625V74.332h428.75V332.092z"/>
</g>
</svg>