<?xml version="1.0" encoding="iso-8859-1"?>
<!-- Uploaded to: SVG Repo, www.svgrepo.com, Generator: SVG Repo Mixer Tools -->
<svg fill="#000000" height="800px" width="800px" version="1.1" id="Layer_1" xmlns="http://www.w3.org/2000/svg" xmlns:xlink="http://www.w3.org/1999/xlink" 
	 viewBox="0 0 512.011 512.011" xml:space="preserve">
<g>
	<g>
		<path d="M394.16,121.327L275.461,2.629c-5.615-5.615-15.206-1.638-15.206,6.298v118.289c0,5.146,4.173,9.318,9.318,9.318h118.289
			C395.799,136.534,399.775,126.934,394.16,121.327z"/>
	</g>
</g>
<g>
	<g>
		<path d="M396.788,230.4v-68.267c0-4.71-3.823-8.533-8.533-8.533H251.722c-4.71,0-8.533-3.823-8.533-8.533V8.534
			c0-4.71-3.823-8.533-8.533-8.533H46.922c-4.71,0-8.533,3.823-8.533,8.533v469.333c0,4.71,3.823,8.533,8.533,8.533l177.084,0.009
			c3.251,0,6.221-1.852,7.654-4.779c1.434-2.918,1.084-6.4-0.905-8.977c-19.465-25.165-29.892-55.253-30.225-87.091
			c-0.666-64.341,41.557-122.88,103.39-140.698c27.375-7.885,55.731-7.825,81.98-0.256c4.54,1.271,9.259-1.306,10.564-5.837
			C396.985,236.971,396.788,231.527,396.788,230.4z"/>
	</g>
</g>
<g>
	<g>
		<path d="M426.169,284.749c-26.743-21.76-62.302-33.067-100.514-27.213c-54.443,8.337-98.176,52.087-106.505,106.53
			c-5.854,38.263,5.504,73.865,27.324,100.608c1.596,1.954,4.565,2.074,6.349,0.29c22.34-22.391,151.287-151.484,173.645-173.867
			C428.251,289.306,428.131,286.336,426.169,284.749z"/>
	</g>
</g>
<g>
	<g>
		<path d="M444.874,303.454c-1.596-1.954-4.565-2.074-6.349-0.29c-22.383,22.366-151.467,151.305-173.867,173.645
			c-1.783,1.784-1.664,4.753,0.29,6.349c26.735,21.82,62.327,33.169,100.582,27.332c54.451-8.311,98.21-52.036,106.556-106.487
			C477.949,365.765,466.642,330.198,444.874,303.454z"/>
	</g>
</g>
</svg>