<?xml version="1.0" encoding="utf-8"?>

<!-- Uploaded to: SVG Repo, www.svgrepo.com, Generator: SVG Repo Mixer Tools -->
<svg version="1.1" id="Icons" xmlns="http://www.w3.org/2000/svg" xmlns:xlink="http://www.w3.org/1999/xlink" 
	 viewBox="0 0 32 32" xml:space="preserve">
<style type="text/css">
	.st0{fill:none;stroke:#000000;stroke-width:2;stroke-linecap:round;stroke-linejoin:round;stroke-miterlimit:10;}
</style>
<polygon points="20,2.6 20,8 25.4,8 "/>
<path d="M23.5,10H19c-0.6,0-1-0.4-1-1V2H7C6.4,2,6,2.4,6,3v26c0,0.6,0.4,1,1,1h18c0.6,0,1-0.4,1-1V12.5C26,11.1,24.9,10,23.5,10z
	 M16,27c-4.4,0-8-3.6-8-8c0-4.1,3.1-7.4,7-7.9V19c0,0.6,0.4,1,1,1h7.9C23.4,23.9,20.1,27,16,27z M17,18v-6.9
	c3.6,0.5,6.5,3.3,6.9,6.9H17z"/>
</svg>