<?xml version="1.0" encoding="iso-8859-1"?>
<!-- Uploaded to: SVG Repo, www.svgrepo.com, Generator: SVG Repo Mixer Tools -->
<svg fill="#000000" height="800px" width="800px" version="1.1" id="Layer_1" xmlns="http://www.w3.org/2000/svg" xmlns:xlink="http://www.w3.org/1999/xlink" 
	 viewBox="0 0 511.995 511.995" xml:space="preserve">
<g>
	<g>
		<path d="M394.151,121.325L275.454,2.629c-5.615-5.615-15.206-1.638-15.206,6.297v118.287c0,5.146,4.173,9.318,9.318,9.318h118.287
			C395.789,136.531,399.766,126.932,394.151,121.325z"/>
	</g>
</g>
<g>
	<g>
		<path d="M396.779,230.397v-68.266c0-4.71-3.823-8.533-8.533-8.533H251.715c-4.71,0-8.533-3.823-8.533-8.533V8.534
			c0-4.71-3.823-8.533-8.533-8.533H46.918c-4.71,0-8.533,3.823-8.533,8.533v469.326c0,4.71,3.823,8.533,8.533,8.533l177.081,0.008
			c3.251,0,6.221-1.852,7.654-4.779c1.434-2.918,1.084-6.4-0.904-8.977c-19.464-25.164-29.892-55.252-30.225-87.09
			c-0.666-64.34,41.557-122.878,103.388-140.695c27.374-7.885,55.73-7.825,81.978-0.256c4.54,1.271,9.258-1.306,10.564-5.837
			C396.975,236.967,396.779,231.523,396.779,230.397z"/>
	</g>
</g>
<g>
	<g>
		<path d="M472.545,367.303c-7.253-56.993-53.273-103.004-110.266-110.24c-83.608-10.615-154.237,60.022-143.597,143.631
			c7.253,56.993,53.273,103.004,110.266,110.24C412.565,521.557,483.186,450.92,472.545,367.303z M285.882,375.469
			c0-23.526,19.14-42.666,42.666-42.666h28.919c3.789,0,5.7-4.565,3.038-7.262l-4.122-4.173c-3.268-3.26-3.268-8.311,0.051-11.46
			c3.499-3.311,8.815-3.661,12.22-0.256l25.651,25.651c3.336,3.328,3.336,8.738,0,12.066l-25.6,25.6
			c-1.664,1.664-3.849,2.5-6.033,2.5c-2.184,0-4.369-0.836-6.033-2.5c-3.336-3.336-3.601-8.328-0.265-11.665l4.122-4.173
			c2.662-2.697,0.751-7.262-3.038-7.262h-28.919c-14.114,0-25.6,11.486-25.6,25.6c0,4.71-3.814,8.533-8.533,8.533
			C289.687,384.003,285.882,380.18,285.882,375.469z M362.68,435.202h-28.808c-3.806,0-5.709,4.599-3.012,7.287l3.9,3.883
			c3.336,3.336,3.157,8.593-0.179,11.929c-1.664,1.664-3.848,2.5-6.033,2.5s-4.369-0.836-6.033-2.5l-25.6-25.6
			c-3.336-3.336-3.336-8.738,0-12.066l26.709-26.709c3.311-3.311,7.637-2.415,10.854,0.998c3.277,3.482,4.446,7.842,1.075,11.213
			l-4.497,4.676c-2.739,2.671-0.845,7.321,2.978,7.321h28.646c14.114,0,25.6-11.486,25.6-25.6c0-4.71,3.814-8.533,8.533-8.533
			s8.533,3.823,8.533,8.533C405.346,416.062,386.206,435.202,362.68,435.202z"/>
	</g>
</g>
</svg>