<?xml version="1.0" encoding="iso-8859-1"?>
<!-- Uploaded to: SVG Repo, www.svgrepo.com, Generator: SVG Repo Mixer Tools -->
<svg fill="#000000" height="800px" width="800px" version="1.1" id="Layer_1" xmlns="http://www.w3.org/2000/svg" xmlns:xlink="http://www.w3.org/1999/xlink" 
	 viewBox="0 0 511.995 511.995" xml:space="preserve">
<g>
	<g>
		<path d="M394.168,121.327L275.469,2.629c-5.615-5.615-15.206-1.638-15.206,6.298v118.289c0,5.146,4.173,9.318,9.318,9.318H387.87
			C395.806,136.534,399.783,126.934,394.168,121.327z"/>
	</g>
</g>
<g>
	<g>
		<path d="M396.796,230.4v-68.267c0-4.71-3.823-8.533-8.533-8.533H251.729c-4.71,0-8.533-3.823-8.533-8.533V8.534
			c0-4.71-3.823-8.533-8.533-8.533H46.929c-4.71,0-8.533,3.823-8.533,8.533v469.333c0,4.71,3.823,8.533,8.533,8.533l177.084,0.009
			c3.251,0,6.221-1.852,7.654-4.779c1.434-2.918,1.084-6.4-0.905-8.977c-19.465-25.165-29.892-55.253-30.225-87.091
			c-0.666-64.341,41.557-122.88,103.39-140.698c27.375-7.885,55.731-7.825,81.98-0.256c4.54,1.271,9.259-1.306,10.564-5.837
			C396.992,236.971,396.796,231.527,396.796,230.4z"/>
	</g>
</g>
<g>
	<g>
		<path d="M472.538,367.318c-7.245-56.994-53.265-103.014-110.251-110.259c-83.618-10.633-154.257,60.015-143.625,143.633
			c7.253,56.994,53.282,103.006,110.276,110.242C412.54,521.558,483.162,450.919,472.538,367.318z M403.785,354.757l-59.733,85.333
			c-1.357,1.937-3.447,3.217-5.777,3.558c-0.401,0.06-0.811,0.085-1.212,0.085c-1.929,0-3.806-0.648-5.333-1.869l-42.667-34.133
			c-3.686-2.944-4.275-8.311-1.331-11.989c2.944-3.686,8.329-4.275,11.989-1.331l32.009,25.609c1.92,1.536,4.745,1.135,6.161-0.887
			l51.908-74.155c2.697-3.866,8.021-4.796,11.887-2.099C405.551,345.583,406.49,350.9,403.785,354.757z"/>
	</g>
</g>
</svg>