<?xml version="1.0" encoding="iso-8859-1"?>
<!-- Uploaded to: SVG Repo, www.svgrepo.com, Generator: SVG Repo Mixer Tools -->
<svg fill="#000000" height="800px" width="800px" version="1.1" id="Layer_1" xmlns="http://www.w3.org/2000/svg" xmlns:xlink="http://www.w3.org/1999/xlink" 
	 viewBox="0 0 512 512" xml:space="preserve">
<g>
	<g>
		<path d="M441.847,127.713L316.901,2.767c-5.91-5.91-16.007-1.725-16.007,6.629v124.515c0,5.416,4.392,9.809,9.809,9.809h124.515
			C443.572,143.72,447.758,133.614,441.847,127.713z"/>
	</g>
</g>
<g>
	<g>
		<path d="M444.614,170.667c0-4.958-4.024-8.982-8.982-8.982H291.912c-4.958,0-8.982-4.024-8.982-8.982V8.983
			c0-4.958-4.024-8.982-8.982-8.982H76.333c-4.958,0-8.982,4.024-8.982,8.982v494.035c0,4.958,4.024,8.983,8.982,8.983h359.334
			c4.958,0,8.982-4.024,8.982-8.983L444.614,170.667z"/>
	</g>
</g>
</svg>