<?xml version="1.0" encoding="iso-8859-1"?>
<!-- Uploaded to: SVG Repo, www.svgrepo.com, Generator: SVG Repo Mixer Tools -->
<svg fill="#000000" height="800px" width="800px" version="1.1" id="Layer_1" xmlns="http://www.w3.org/2000/svg" xmlns:xlink="http://www.w3.org/1999/xlink" 
	 viewBox="0 0 472.614 472.614" xml:space="preserve">
<g>
	<g>
		<polygon points="325.227,9.842 325.227,115.124 430.508,115.124 		"/>
	</g>
</g>
<g>
	<g>
		<path d="M261.477,219.893c-13-13-30.279-20.154-48.673-20.154c-18.384,0-35.663,7.154-48.663,20.154
			c-26.837,26.837-26.837,70.509,0,97.346c13,13,30.279,20.154,48.663,20.154c18.394,0,35.673-7.154,48.673-20.154
			C288.314,290.402,288.314,246.73,261.477,219.893z"/>
	</g>
</g>
<g>
	<g>
		<path d="M305.535,134.816V0H32.265v472.614h408.085V134.816H305.535z M331.516,401.201l-63.488-63.488
			c-16.091,12.867-35.645,19.334-55.224,19.334c-22.663,0-45.327-8.625-62.586-25.885c-34.52-34.52-34.52-90.673,0-125.193
			c34.529-34.529,90.673-34.509,125.183,0c32.163,32.163,34.324,83.092,6.55,117.82l63.488,63.488L331.516,401.201z"/>
	</g>
</g>
</svg>