<?xml version="1.0" encoding="iso-8859-1"?>
<!-- Uploaded to: SVG Repo, www.svgrepo.com, Generator: SVG Repo Mixer Tools -->
<svg fill="#000000" height="800px" width="800px" version="1.1" id="Layer_1" xmlns="http://www.w3.org/2000/svg" xmlns:xlink="http://www.w3.org/1999/xlink" 
	 viewBox="0 0 511.995 511.995" xml:space="preserve">
<g>
	<g>
		<path d="M394.151,121.325L275.454,2.629c-5.615-5.615-15.206-1.638-15.206,6.297v118.287c0,5.146,4.173,9.318,9.318,9.318h118.287
			C395.789,136.531,399.766,126.932,394.151,121.325z"/>
	</g>
</g>
<g>
	<g>
		<path d="M396.779,230.397v-68.266c0-4.71-3.823-8.533-8.533-8.533H251.715c-4.71,0-8.533-3.823-8.533-8.533V8.534
			c0-4.71-3.823-8.533-8.533-8.533H46.918c-4.71,0-8.533,3.823-8.533,8.533v469.326c0,4.71,3.823,8.533,8.533,8.533l177.081,0.008
			c3.251,0,6.221-1.852,7.654-4.779c1.434-2.918,1.084-6.4-0.904-8.977c-19.464-25.164-29.892-55.252-30.225-87.09
			c-0.666-64.34,41.557-122.878,103.388-140.695c27.374-7.885,55.73-7.825,81.978-0.256c4.54,1.271,9.258-1.306,10.564-5.837
			C396.975,236.967,396.779,231.523,396.779,230.397z"/>
	</g>
</g>
<g>
	<g>
		<circle cx="345.58" cy="349.861" r="17.066"/>
	</g>
</g>
<g>
	<g>
		<path d="M472.545,367.303c-7.253-56.993-53.273-103.004-110.266-110.24c-83.608-10.615-154.237,60.022-143.597,143.631
			c7.253,56.993,53.273,103.004,110.266,110.24C412.565,521.557,483.186,450.92,472.545,367.303z M396.822,435.202h-0.009
			c0,4.71-3.814,8.533-8.533,8.533s-8.533-3.823-8.533-8.533v-15.547c0-17.817-12.996-33.757-30.728-35.481
			c-20.343-1.98-37.538,14.029-37.538,33.971v17.066c0,4.71-3.814,8.533-8.533,8.533s-8.533-3.823-8.533-8.533v-17.066
			c0-17.544,8.883-33.049,22.374-42.273c1.988-1.357,2.714-4.011,1.289-5.956c-5.828-7.953-8.345-18.457-5.274-29.576
			c3.217-11.639,12.885-20.889,24.644-23.637c22.357-5.222,42.308,11.69,42.308,33.177c0,7.475-2.449,14.361-6.554,19.985
			c-1.434,1.963-0.768,4.625,1.237,5.999c13.5,9.224,22.383,24.729,22.383,42.282V435.202z"/>
	</g>
</g>
</svg>