<?xml version="1.0" encoding="iso-8859-1"?>
<!-- Uploaded to: SVG Repo, www.svgrepo.com, Generator: SVG Repo Mixer Tools -->
<!DOCTYPE svg PUBLIC "-//W3C//DTD SVG 1.1//EN" "http://www.w3.org/Graphics/SVG/1.1/DTD/svg11.dtd">
<svg fill="#000000" height="800px" width="800px" version="1.1" id="Capa_1" xmlns="http://www.w3.org/2000/svg" xmlns:xlink="http://www.w3.org/1999/xlink" 
	 viewBox="0 0 496.452 496.452" xml:space="preserve">
<g>
	<path d="M66.118,316.561c11.266-5.383,24.078-6.583,36.064-3.25l54.494,14.98c9.328-6.455,20.549-10.17,32.289-10.17
		c6.965,0,13.797,1.266,20.318,3.777c2.496,0.953,4.777,2.27,7.078,3.529l32.422-14.205c0.162-0.474,0.213-0.969,0.393-1.443
		c8.342-21.777,29.66-36.428,52.984-36.428c6.965,0,13.797,1.266,20.334,3.776c19.15,7.343,31.844,24.013,35.309,42.852
		l28.018,16.486l64.35-38.743c2.332-9.788,4.219-19.758,5.158-30.005c0.475-5.091-1.215-10.147-4.664-13.929
		c-3.449-3.791-8.342-5.96-13.449-5.96H259.524c-10.066,0-18.217-8.148-18.217-18.2V51.907c0-5.124-2.148-10.001-5.943-13.45
		c-3.775-3.45-8.854-5.139-13.945-4.679C112.036,43.81,26.368,135.818,26.368,247.829c0,28.431,5.654,55.511,15.67,80.345
		L66.118,316.561z"/>
	<path d="M328.011,380.5c-7.883,4.072-16.686,6.389-25.85,6.389c-6.965,0-13.797-1.266-20.334-3.776
		c-4.699-1.806-8.934-4.367-12.908-7.261l-24.605,10.793c-0.623,2.888-1.297,5.781-2.363,8.586
		c-8.377,21.794-29.66,36.429-52.984,36.429c-6.965,0-13.813-1.261-20.332-3.776c-14.154-5.419-25.355-16.048-31.535-29.892
		c-0.852-1.902-1.311-3.893-1.955-5.863l-45.115-12.397l-13.17,6.352c39.418,46.842,98.428,76.666,164.449,76.666
		c55.99,0,106.971-21.4,145.225-56.48c-9.252,0.118-18.514-2.2-26.789-7.076L328.011,380.5z"/>
	<path d="M289.681,213.025h132.523c3.826,0,7.469-1.606,10.031-4.433c2.561-2.822,3.848-6.604,3.484-10.395
		c-7.031-76.702-68.108-137.779-144.795-144.826c-3.791-0.347-7.572,0.919-10.379,3.495c-2.826,2.567-4.449,6.21-4.449,10.022
		v132.554C276.097,206.948,282.175,213.025,289.681,213.025z"/>
	<path d="M494.042,310.566c-4.781-7.966-15.113-10.542-23.078-5.73l-85.602,50.897l-43.324-25.522
		c0-5.568-1.051-11.103-3.385-16.343c-1.314-2.939-3.039-5.598-4.959-8.078c-4.434-5.766-10.266-10.297-17.211-12.96
		c-12.664-4.827-26.854-2.296-37.529,5.225c-6.225,4.367-11.266,10.429-14.076,17.752c-0.949,2.479-1.645,5.025-2.104,7.587
		l-31.697,13.813l-16.521,7.21c-3.352-2.807-7.098-5.204-11.303-6.811c-14.715-5.618-31.467-1.266-42.371,9.276l-17.951-4.925
		l-45.213-12.435c-8.082-2.22-16.691-1.429-24.293,2.199L9.521,362.55c-8.379,4.021-11.873,14.093-7.854,22.451
		c2.924,6.011,8.92,9.511,15.18,9.511c2.445,0,4.924-0.546,7.293-1.679l64.643-30.891l43.57,11.97l16.967,4.665
		c0.414,4.286,1.348,8.526,3.154,12.566c4.336,9.757,12.219,17.212,22.17,21.039c4.602,1.774,9.43,2.659,14.322,2.659
		c16.41,0,31.402-10.299,37.285-25.638c1.738-4.551,2.51-9.28,2.561-14.011l16.258-7.046l27.201-11.792
		c4.236,4.811,9.439,8.689,15.584,11.057c0.064,0.03,0.146,0.03,0.213,0.061c4.531,1.694,9.262,2.598,14.094,2.598
		c2.361,0,4.695-0.282,6.965-0.689c6.863-1.234,13.186-4.271,18.455-8.653l40.703,23.977c11.002,6.506,24.6,6.403,35.504-0.163
		l84.52-50.898C496.257,328.848,498.833,318.515,494.042,310.566z M202.698,380.175c-2.859,7.403-11.467,11.362-19.02,8.455
		c-3.678-1.415-6.57-4.155-8.178-7.752c-1.592-3.581-1.709-7.587-0.297-11.266c2.17-5.65,7.699-9.446,13.762-9.446
		c1.791,0,3.568,0.327,5.256,0.986c3.68,1.412,6.572,4.157,8.18,7.75C203.993,372.5,204.095,376.511,202.698,380.175z
		 M315.907,335.4c-2.811,7.327-11.613,11.317-19.018,8.46c-3.664-1.414-6.572-4.154-8.164-7.751
		c-1.611-3.597-1.709-7.587-0.295-11.267c2.168-5.653,7.684-9.444,13.73-9.444c1.807,0,3.578,0.325,5.285,0.984
		c3.664,1.413,6.572,4.153,8.166,7.751C317.204,327.73,317.3,331.72,315.907,335.4z"/>
</g>
</svg>